<?xml version="1.0" encoding="UTF-8" standalone="no"?>
<svg
   width="128"
   height="128"
   version="1.1"
   id="svg6"
   sodipodi:docname="icon.svg"
   inkscape:version="1.3 (0e150ed6c4, 2023-07-21)"
   xmlns:inkscape="http://www.inkscape.org/namespaces/inkscape"
   xmlns:sodipodi="http://sodipodi.sourceforge.net/DTD/sodipodi-0.dtd"
   xmlns="http://www.w3.org/2000/svg"
   xmlns:svg="http://www.w3.org/2000/svg">
  <defs
     id="defs6" />
  <sodipodi:namedview
     id="namedview6"
     pagecolor="#505050"
     bordercolor="#eeeeee"
     borderopacity="1"
     inkscape:showpageshadow="0"
     inkscape:pageopacity="0"
     inkscape:pagecheckerboard="0"
     inkscape:deskcolor="#505050"
     inkscape:zoom="4.5299028"
     inkscape:cx="60.486949"
     inkscape:cy="71.966224"
     inkscape:window-width="1920"
     inkscape:window-height="1009"
     inkscape:window-x="1912"
     inkscape:window-y="-8"
     inkscape:window-maximized="1"
     inkscape:current-layer="svg6" />
  <rect
     width="124"
     height="124"
     x="2"
     y="2"
     fill="#363d52"
     stroke="#212532"
     stroke-width="4"
     rx="14"
     id="rect1" />
  <path
     id="path1"
     style="fill:#fc7f7f;fill-opacity:1;stroke:none;stroke-width:1.07475;stroke-linecap:square"
     d="m 25.031606,46.459759 c -1.265871,0.340303 -2.505111,0.772562 -3.708393,1.292389 -0.895563,0.346676 -1.732039,0.784219 -2.509902,1.293671 C 8.0013411,55.099659 2.665377,67.710283 5.8485002,79.685785 9.7263554,94.158143 24.602272,102.74669 39.074592,98.868891 46.882603,96.775826 53.350513,91.309775 56.716076,83.959934 L 80.259639,77.65153 c 6.577169,4.673508 14.893461,6.17693 22.690581,4.101919 14.47236,-3.877817 23.06097,-18.753705 19.18306,-33.226025 -2.87263,-10.625047 -11.88021,-18.461489 -22.800515,-19.836137 -2.236854,-0.61853 -4.661713,-0.679109 -7.074485,-0.03224 l -0.530511,0.142148 c -0.949079,0.132628 -1.890593,0.312639 -2.820516,0.543482 -0.920813,0.264879 -1.826872,0.578418 -2.714435,0.939497 l -58.34066,15.632322 c -0.949086,0.132627 -1.890614,0.312637 -2.820523,0.543479 z m 66.983482,-7.961811 a 5.3244341,5.3244341 0 0 1 6.520718,3.765223 5.3244341,5.3244341 0 0 1 -3.764642,6.520557 5.3244341,5.3244341 0 0 1 -6.521163,-3.76446 5.3244341,5.3244341 0 0 1 3.765087,-6.52132 z m -65.444612,26.117027 2.10296,-0.563574 c 1.674499,-0.448565 3.383408,0.538009 3.8321,2.212431 l 1.05644,3.942819 3.942774,-1.056432 c 1.674498,-0.448715 3.383406,0.538007 3.832083,2.212406 l 0.563574,2.102985 c 0.448565,1.674481 -0.538008,3.38339 -2.212459,3.832097 l -3.942781,1.056442 1.056439,3.942983 c 0.448715,1.674513 -0.538007,3.383369 -2.212444,3.831949 l -2.102985,0.563949 c -1.674482,0.44729 -3.383405,-0.536733 -3.832083,-2.212558 l -1.056433,-3.942819 -3.942774,1.055953 c -1.674497,0.448865 -3.383406,-0.536733 -3.832084,-2.212234 l -0.563574,-2.103096 c -0.448714,-1.674453 0.538009,-3.383393 2.212446,-3.832055 l 3.942773,-1.056432 -1.05644,-3.94279 c -0.448564,-1.674497 0.538009,-3.383406 2.212468,-3.832069 z M 83.7108,52.881351 a 5.3244341,5.3244341 0 0 1 6.521178,3.764458 5.3244341,5.3244341 0 0 1 -3.765088,6.521336 5.3244341,5.3244341 0 0 1 -6.521306,-3.765095 5.3244341,5.3244341 0 0 1 3.765216,-6.520699 z m 22.6877,-6.079128 a 5.3244341,5.3244341 0 0 1 6.52055,3.7646 5.3244341,5.3244341 0 0 1 -3.76448,6.521148 5.3244341,5.3244341 0 0 1 -6.5213,-3.76505 5.3244341,5.3244341 0 0 1 3.76523,-6.520698 z m -8.304239,14.383402 a 5.3244341,5.3244341 0 0 1 6.520529,3.764615 5.3244341,5.3244341 0 0 1 -3.76448,6.521179 5.3244341,5.3244341 0 0 1 -6.521308,-3.76508 5.3244341,5.3244341 0 0 1 3.765259,-6.520714 z" />
</svg>
