<?xml version="1.0" encoding="UTF-8" standalone="no"?>
<!-- Created with Inkscape (http://www.inkscape.org/) -->

<svg
   width="16"
   height="16"
   viewBox="0 0 4.2333331 4.2333333"
   version="1.1"
   id="svg1"
   inkscape:version="1.3 (0e150ed6c4, 2023-07-21)"
   sodipodi:docname="FirstPerson3D - Copia.svg"
   inkscape:export-filename="SideScroller2D.png"
   inkscape:export-xdpi="96"
   inkscape:export-ydpi="96"
   xmlns:inkscape="http://www.inkscape.org/namespaces/inkscape"
   xmlns:sodipodi="http://sodipodi.sourceforge.net/DTD/sodipodi-0.dtd"
   xmlns="http://www.w3.org/2000/svg"
   xmlns:svg="http://www.w3.org/2000/svg">
  <sodipodi:namedview
     id="namedview1"
     pagecolor="#505050"
     bordercolor="#eeeeee"
     borderopacity="1"
     inkscape:showpageshadow="0"
     inkscape:pageopacity="0"
     inkscape:pagecheckerboard="0"
     inkscape:deskcolor="#505050"
     inkscape:document-units="px"
     inkscape:zoom="16.791365"
     inkscape:cx="6.3723229"
     inkscape:cy="-5.4194522"
     inkscape:window-width="1920"
     inkscape:window-height="1009"
     inkscape:window-x="1912"
     inkscape:window-y="-8"
     inkscape:window-maximized="1"
     inkscape:current-layer="g9" />
  <defs
     id="defs1" />
  <g
     inkscape:label="Camada 1"
     inkscape:groupmode="layer"
     id="layer1"
     transform="translate(-31.201158,-116.91017)">
    <g
       id="g4"
       transform="translate(-0.26740696,1.0696279)" />
    <g
       id="g6"
       transform="rotate(-90,116.18433,156.3172)" />
    <g
       id="g10"
       transform="matrix(0.56376851,0,0,0.56376851,14.30131,63.147709)">
      <g
         id="g9"
         transform="matrix(0.05656697,0,0,0.05656697,28.637298,90.203103)">
        <path
           id="path1"
           style="fill:#fc7f7f;fill-opacity:1;stroke:none;stroke-width:0.956246;stroke-linecap:square"
           d="m 38.302908,137.22081 c -0.904708,0.73591 -1.7546,1.5368 -2.543403,2.3958 -0.601681,0.60661 -1.122363,1.2657 -1.569365,1.96185 -6.585771,8.84194 -6.343388,21.02272 0.588865,29.59561 8.402812,10.34902 23.604307,11.92669 33.953306,3.52391 5.583072,-4.53418 8.853296,-11.32206 8.91972,-18.51405 l 16.835744,-13.66967 c 7.039125,1.40929 14.340425,-0.38777 19.921245,-4.90329 10.34902,-8.40281 11.92673,-23.6043 3.52388,-33.95327 -6.18987,-7.588513 -16.3513,-10.685104 -25.721226,-7.838294 -2.041591,0.309388 -4.033402,1.140216 -5.758753,2.541102 L 86.07355,98.66855 c -0.72333,0.451231 -1.422322,0.940216 -2.093931,1.46526 -0.651839,0.54944 -1.274054,1.13305 -1.864042,1.74841 l -41.718742,33.87331 c -0.723305,0.45122 -1.422326,0.9402 -2.093935,1.46526 z m 51.523616,-30.77914 a 4.7373276,4.7373276 0 0 1 6.663621,0.69198 4.7373276,4.7373276 0 0 1 -0.69155,6.66327 4.7373276,4.7373276 0 0 1 -6.663704,-0.69119 4.7373276,4.7373276 0 0 1 0.691633,-6.66406 z m -43.684154,44.9688 1.503812,-1.221 c 1.197411,-0.97224 2.943716,-0.79101 3.915949,0.4064 l 2.289226,2.81944 2.819428,-2.28922 c 1.19741,-0.97224 2.943726,-0.79099 3.915956,0.40642 l 1.221009,1.5038 c 0.972235,1.19742 0.790987,2.94372 -0.406418,3.91597 l -2.819427,2.28923 2.289213,2.81941 c 0.972245,1.19742 0.791,2.94374 -0.406416,3.91597 l -1.503807,1.22102 c -1.197411,0.97222 -2.943717,0.791 -3.915972,-0.40646 l -2.289216,-2.81941 -2.819423,2.28923 c -1.197415,0.97223 -2.94372,0.791 -3.915964,-0.40644 l -1.221017,-1.50382 c -0.972223,-1.19739 -0.790984,-2.94371 0.406433,-3.91594 l 2.819432,-2.28921 -2.289218,-2.81942 c -0.972244,-1.19743 -0.790996,-2.94375 0.40642,-3.91597 z M 88.301035,121.1399 a 4.7373276,4.7373276 0 0 1 6.6637,0.69119 4.7373276,4.7373276 0 0 1 -0.691628,6.66406 4.7373276,4.7373276 0 0 1 -6.664036,-0.69164 4.7373276,4.7373276 0 0 1 0.691964,-6.66361 z m 16.223725,-13.17274 a 4.7373276,4.7373276 0 0 1 6.66325,0.69153 4.7373276,4.7373276 0 0 1 -0.69119,6.66368 4.7373276,4.7373276 0 0 1 -6.66404,-0.69162 4.7373276,4.7373276 0 0 1 0.69198,-6.66359 z m -1.52546,14.69821 a 4.7373276,4.7373276 0 0 1 6.66324,0.69154 4.7373276,4.7373276 0 0 1 -0.6912,6.6637 4.7373276,4.7373276 0 0 1 -6.66403,-0.69164 4.7373276,4.7373276 0 0 1 0.69199,-6.6636 z" />
        <path
           style="font-weight:bold;font-size:77.2312px;font-family:Calibri;-inkscape-font-specification:'Calibri Bold';text-align:center;text-anchor:middle;fill:#fc7f7f;stroke-width:34.2068"
           d="m 113.86171,196.92383 q 0,3.65792 -1.39529,6.48621 -1.3953,2.82829 -3.88419,4.75153 -2.4889,1.92324 -5.95827,2.94142 -3.469368,0.98048 -7.579818,0.98048 -2.488896,0 -4.676108,-0.37711 -2.187211,-0.33939 -3.884186,-0.86734 -1.659264,-0.52795 -2.75287,-1.09361 -1.093606,-0.56565 -1.433001,-0.86734 -0.339395,-0.30168 -0.527948,-0.67879 -0.150842,-0.3771 -0.301684,-0.86734 -0.113132,-0.52795 -0.188553,-1.28216 -0.03771,-0.79192 -0.03771,-1.88553 0,-1.8101 0.301684,-2.48889 0.301685,-0.7165 0.905053,-0.7165 0.377106,0 1.282159,0.52794 0.942764,0.49024 2.375764,1.09361 1.433001,0.56566 3.356239,1.09361 1.923238,0.49023 4.374424,0.49023 2.07408,0 3.657923,-0.49023 1.583843,-0.49024 2.677452,-1.35758 1.13131,-0.90506 1.65926,-2.1495 0.56566,-1.28216 0.56566,-2.8283 0,-1.69697 -0.67879,-3.05455 -0.64108,-1.35758 -1.960949,-2.30034 -1.282159,-0.98048 -3.280818,-1.50843 -1.960948,-0.52794 -4.638397,-0.52794 h -4.223582 q -0.490237,0 -0.829632,-0.11313 -0.339395,-0.15085 -0.565658,-0.56566 -0.226263,-0.41482 -0.339395,-1.13132 -0.07542,-0.75421 -0.07542,-1.92324 0,-1.0936 0.07542,-1.77239 0.113132,-0.7165 0.301685,-1.09361 0.226263,-0.3771 0.527947,-0.52795 0.339395,-0.15084 0.791922,-0.15084 h 4.261292 q 2.187211,0 3.884186,-0.49024 1.696975,-0.52794 2.828291,-1.47071 1.169027,-0.94276 1.772398,-2.26263 0.60337,-1.35758 0.60337,-2.97913 0,-1.24445 -0.41482,-2.33806 -0.41482,-1.13131 -1.244448,-1.92324 -0.791921,-0.82963 -2.07408,-1.28215 -1.282158,-0.49024 -3.016843,-0.49024 -1.960949,0 -3.695634,0.60337 -1.734685,0.56566 -3.129976,1.28216 -1.357579,0.67879 -2.338054,1.28215 -0.942763,0.60337 -1.39529,0.60337 -0.301684,0 -0.527947,-0.11313 -0.226264,-0.15084 -0.377106,-0.52795 -0.150842,-0.3771 -0.226263,-1.0936 -0.07542,-0.7165 -0.07542,-1.84782 0,-0.94276 0.03771,-1.54613 0.03771,-0.64108 0.150842,-1.0559 0.113132,-0.41481 0.263974,-0.7165 0.188553,-0.30168 0.565658,-0.64108 0.377106,-0.3771 1.546133,-1.0936 1.169027,-0.7165 2.941423,-1.39529 1.772395,-0.67879 4.072739,-1.13132 2.338054,-0.49024 5.053213,-0.49024 3.54479,0 6.25995,0.82964 2.75287,0.82963 4.60069,2.41347 1.88553,1.54613 2.82829,3.84648 0.98047,2.26263 0.98047,5.12863 0,2.22492 -0.56566,4.14816 -0.56565,1.92324 -1.65926,3.43166 -1.09361,1.50842 -2.75287,2.56432 -1.62155,1.05589 -3.77105,1.58384 v 0.11313 q 2.56431,0.30169 4.60068,1.31987 2.03637,0.98048 3.43166,2.4889 1.433,1.50842 2.18721,3.43166 0.75422,1.88553 0.75422,4.07274 z m 33.33612,-22.13609 q 0,3.05455 -0.90506,5.58116 -0.86734,2.48889 -2.56431,4.26129 -1.69698,1.7724 -4.22358,2.71516 -2.52661,0.94276 -5.73201,0.94276 -3.46937,0 -5.99597,-0.82963 -2.52661,-0.86734 -4.18587,-2.52661 -1.62156,-1.69697 -2.41348,-4.14816 -0.79192,-2.48889 -0.79192,-5.69429 0,-3.09226 0.82963,-5.58116 0.86734,-2.4889 2.56432,-4.22358 1.69697,-1.7724 4.22358,-2.71516 2.56432,-0.94276 5.99598,-0.94276 3.28081,0 5.732,0.90505 2.4889,0.86734 4.11045,2.56432 1.65926,1.69697 2.4889,4.14816 0.86734,2.45118 0.86734,5.54345 z m -1.50842,20.92935 q 0,1.73469 -0.3394,2.4889 -0.33939,0.7165 -1.16903,0.7165 h -20.81622 q -0.82963,0 -1.20674,-0.7165 -0.3771,-0.75421 -0.3771,-2.4889 0,-1.81011 0.3771,-2.52661 0.37711,-0.75421 1.20674,-0.75421 h 20.81622 q 0.82964,0 1.16903,0.7165 0.3394,0.7165 0.3394,2.56432 z m -7.01417,-20.62767 q 0,-1.58384 -0.26397,-2.90371 -0.22626,-1.31987 -0.79192,-2.26263 -0.56566,-0.94277 -1.50842,-1.47072 -0.90506,-0.56565 -2.33806,-0.56565 -1.24444,0 -2.18721,0.49023 -0.94276,0.49024 -1.54613,1.39529 -0.56566,0.86735 -0.86734,2.18722 -0.26398,1.28215 -0.26398,2.94142 0,1.62155 0.22627,2.94142 0.22626,1.31987 0.79192,2.26263 0.56566,0.90506 1.50842,1.433 0.94276,0.49024 2.33805,0.49024 1.20674,0 2.11179,-0.3771 0.94277,-0.41482 1.54614,-1.24445 0.60337,-0.82963 0.90505,-2.1495 0.33939,-1.31987 0.33939,-3.16769 z"
           id="text1"
           aria-label="3ยบ" />
      </g>
    </g>
  </g>
</svg>
