<?xml version="1.0" encoding="UTF-8" standalone="no"?>
<!-- Created with Inkscape (http://www.inkscape.org/) -->

<svg
   width="16"
   height="16"
   viewBox="0 0 4.2333331 4.2333333"
   version="1.1"
   id="svg1"
   inkscape:version="1.3 (0e150ed6c4, 2023-07-21)"
   sodipodi:docname="TopDown2D.svg"
   inkscape:export-filename="SideScroller2D.png"
   inkscape:export-xdpi="96"
   inkscape:export-ydpi="96"
   xmlns:inkscape="http://www.inkscape.org/namespaces/inkscape"
   xmlns:sodipodi="http://sodipodi.sourceforge.net/DTD/sodipodi-0.dtd"
   xmlns="http://www.w3.org/2000/svg"
   xmlns:svg="http://www.w3.org/2000/svg">
  <sodipodi:namedview
     id="namedview1"
     pagecolor="#505050"
     bordercolor="#eeeeee"
     borderopacity="1"
     inkscape:showpageshadow="0"
     inkscape:pageopacity="0"
     inkscape:pagecheckerboard="0"
     inkscape:deskcolor="#505050"
     inkscape:document-units="px"
     inkscape:zoom="16.791365"
     inkscape:cx="6.4318775"
     inkscape:cy="7.6229659"
     inkscape:window-width="1920"
     inkscape:window-height="1009"
     inkscape:window-x="1912"
     inkscape:window-y="-8"
     inkscape:window-maximized="1"
     inkscape:current-layer="g9" />
  <defs
     id="defs1" />
  <g
     inkscape:label="Camada 1"
     inkscape:groupmode="layer"
     id="layer1"
     transform="translate(-31.201158,-116.91017)">
    <g
       id="g4"
       transform="translate(-0.26740696,1.0696279)" />
    <g
       id="g6"
       transform="rotate(-90,116.18433,156.3172)" />
    <g
       id="g10"
       transform="matrix(0.56376851,0,0,0.56376851,14.30131,63.147709)">
      <g
         id="g9"
         transform="matrix(0.05656697,0,0,0.05656697,28.637298,90.203103)">
        <path
           id="path1"
           style="fill:#fc7f7f;fill-opacity:1;stroke:none;stroke-width:0.956246;stroke-linecap:square"
           d="m 38.302908,137.22081 c -0.904708,0.73591 -1.7546,1.5368 -2.543403,2.3958 -0.601681,0.60661 -1.122363,1.2657 -1.569365,1.96185 -6.585771,8.84194 -6.343388,21.02272 0.588865,29.59561 8.402812,10.34902 23.604307,11.92669 33.953306,3.52391 5.583072,-4.53418 8.853296,-11.32206 8.91972,-18.51405 l 16.835744,-13.66967 c 7.039125,1.40929 14.340425,-0.38777 19.921245,-4.90329 10.34902,-8.40281 11.92673,-23.6043 3.52388,-33.95327 -6.18987,-7.588513 -16.3513,-10.685104 -25.721226,-7.838294 -2.041591,0.309388 -4.033402,1.140216 -5.758753,2.541102 L 86.07355,98.66855 c -0.72333,0.451231 -1.422322,0.940216 -2.093931,1.46526 -0.651839,0.54944 -1.274054,1.13305 -1.864042,1.74841 l -41.718742,33.87331 c -0.723305,0.45122 -1.422326,0.9402 -2.093935,1.46526 z m 51.523616,-30.77914 a 4.7373276,4.7373276 0 0 1 6.663621,0.69198 4.7373276,4.7373276 0 0 1 -0.69155,6.66327 4.7373276,4.7373276 0 0 1 -6.663704,-0.69119 4.7373276,4.7373276 0 0 1 0.691633,-6.66406 z m -43.684154,44.9688 1.503812,-1.221 c 1.197411,-0.97224 2.943716,-0.79101 3.915949,0.4064 l 2.289226,2.81944 2.819428,-2.28922 c 1.19741,-0.97224 2.943726,-0.79099 3.915956,0.40642 l 1.221009,1.5038 c 0.972235,1.19742 0.790987,2.94372 -0.406418,3.91597 l -2.819427,2.28923 2.289213,2.81941 c 0.972245,1.19742 0.791,2.94374 -0.406416,3.91597 l -1.503807,1.22102 c -1.197411,0.97222 -2.943717,0.791 -3.915972,-0.40646 l -2.289216,-2.81941 -2.819423,2.28923 c -1.197415,0.97223 -2.94372,0.791 -3.915964,-0.40644 l -1.221017,-1.50382 c -0.972223,-1.19739 -0.790984,-2.94371 0.406433,-3.91594 l 2.819432,-2.28921 -2.289218,-2.81942 c -0.972244,-1.19743 -0.790996,-2.94375 0.40642,-3.91597 z M 88.301035,121.1399 a 4.7373276,4.7373276 0 0 1 6.6637,0.69119 4.7373276,4.7373276 0 0 1 -0.691628,6.66406 4.7373276,4.7373276 0 0 1 -6.664036,-0.69164 4.7373276,4.7373276 0 0 1 0.691964,-6.66361 z m 16.223725,-13.17274 a 4.7373276,4.7373276 0 0 1 6.66325,0.69153 4.7373276,4.7373276 0 0 1 -0.69119,6.66368 4.7373276,4.7373276 0 0 1 -6.66404,-0.69162 4.7373276,4.7373276 0 0 1 0.69198,-6.66359 z m -1.52546,14.69821 a 4.7373276,4.7373276 0 0 1 6.66324,0.69154 4.7373276,4.7373276 0 0 1 -0.6912,6.6637 4.7373276,4.7373276 0 0 1 -6.66403,-0.69164 4.7373276,4.7373276 0 0 1 0.69199,-6.6636 z" />
        <g
           id="g5"
           transform="matrix(0.63191736,0,0,0.63191736,55.572118,52.750913)"
           style="fill:#fc7f7f;fill-opacity:1">
          <g
             id="g1"
             transform="translate(1.3975191)"
             style="fill:#fc7f7f;fill-opacity:1">
            <path
               id="rect6"
               style="fill:#fc7f7f;stroke-width:0.664399;stroke-linecap:square;fill-opacity:1"
               d="m 53.159426,189.98425 c -2.920033,0.01 -26.405145,13.62571 -26.405145,15.41252 0,1.84443 25.02496,16.29222 26.622288,15.37002 0.59871,-0.34567 0.973011,-4.62136 1.122903,-9.88102 h 18.990401 c 0.760885,0 1.373912,-0.61236 1.373912,-1.37324 v -8.23152 c 0,-0.76088 -0.613027,-1.37324 -1.373912,-1.37324 H 54.499472 c -0.1499,-5.25966 -0.524193,-9.53535 -1.122903,-9.88102 -0.04992,-0.0289 -0.122948,-0.0428 -0.217143,-0.0426 z" />
            <path
               id="path6"
               style="fill:#fc7f7f;stroke-width:0.664399;stroke-linecap:square;fill-opacity:1"
               d="m 125.85934,220.80898 c 2.92003,-0.01 26.40514,-13.62573 26.40514,-15.41252 0,-1.84443 -25.02495,-16.29224 -26.62227,-15.37002 -0.59872,0.34567 -0.97303,4.62136 -1.12291,9.881 h -18.99041 c -0.76088,0 -1.37389,0.61236 -1.37389,1.37326 v 8.23152 c 0,0.76089 0.61301,1.37324 1.37389,1.37324 h 18.99041 c 0.14986,5.25966 0.52419,9.53535 1.12291,9.88102 0.05,0.0289 0.12295,0.0428 0.21713,0.0426 z" />
          </g>
          <g
             id="g3"
             transform="rotate(90,90.20814,206.09537)"
             style="fill:#fc7f7f;fill-opacity:1">
            <path
               id="path2"
               style="fill:#fc7f7f;stroke-width:0.664399;stroke-linecap:square;fill-opacity:1"
               d="m 53.159426,189.98425 c -2.920033,0.01 -26.405145,13.62571 -26.405145,15.41252 0,1.84443 25.02496,16.29222 26.622288,15.37002 0.59871,-0.34567 0.973011,-4.62136 1.122903,-9.88102 h 18.990401 c 0.760885,0 1.373912,-0.61236 1.373912,-1.37324 v -8.23152 c 0,-0.76088 -0.613027,-1.37324 -1.373912,-1.37324 H 54.499472 c -0.1499,-5.25966 -0.524193,-9.53535 -1.122903,-9.88102 -0.04992,-0.0289 -0.122948,-0.0428 -0.217143,-0.0426 z" />
            <path
               id="path3"
               style="fill:#fc7f7f;stroke-width:0.664399;stroke-linecap:square;fill-opacity:1"
               d="m 125.85934,220.80898 c 2.92003,-0.01 26.40514,-13.62573 26.40514,-15.41252 0,-1.84443 -25.02495,-16.29224 -26.62227,-15.37002 -0.59872,0.34567 -0.97303,4.62136 -1.12291,9.881 h -18.99041 c -0.76088,0 -1.37389,0.61236 -1.37389,1.37326 v 8.23152 c 0,0.76089 0.61301,1.37324 1.37389,1.37324 h 18.99041 c 0.14986,5.25966 0.52419,9.53535 1.12291,9.88102 0.05,0.0289 0.12295,0.0428 0.21713,0.0426 z" />
          </g>
        </g>
      </g>
    </g>
  </g>
</svg>
